<svg id="Capa_1" enable-background="new 0 0 512 512" height="512" viewBox="0 0 512 512" width="512" xmlns="http://www.w3.org/2000/svg"><g><g><g><g><path d="m61.534 40.145v471.855h194.466l47.488-227.881-47.488-243.974z" fill="#faf5c8"/></g><g><path d="m256 40.145h194.466v471.855h-194.466z" fill="#f8e69a"/></g></g><g><path d="m256 445.752h-122.979v-30h122.979l15 15z" fill="#f2cf7f"/></g><g><path d="m256 379.503h-122.979v-30h122.979l15 15z" fill="#f2cf7f"/></g><g><path d="m256 415.752h122.978v30h-122.978z" fill="#e6926a"/></g><g><path d="m256 349.503h122.978v30h-122.978z" fill="#e6926a"/></g></g><g><path d="m256 80.29h-77.788v-80.29h77.788l15 41.429z" fill="#b31061"/></g><g><path d="m256 0h77.788v80.29h-77.788z" fill="#6e294b"/></g><g><path d="m223.512 164.049v-23.673h-30v23.673l-47.488 27.417v54.835l-20.502 11.837 15 25.98 20.502-11.837 47.488 27.417 47.488-27.416 6.594-44.738-6.594-44.737zm17.488 82.253-32.488 18.757-32.488-18.757v-37.515l32.488-18.757 32.488 18.757z" fill="#dd415b"/></g><path d="m371.479 171.044-20.438 11.799-47.553-27.455-47.488 27.419v89.476l32.488 18.757v23.673h30v-23.673l47.488-27.417v-54.761l20.502-11.836zm-35.502 75.258-32.488 18.757-32.489-18.757v-37.515l32.488-18.757 32.488 18.757v37.515z" fill="#b31061"/></g></svg>